<svg xmlns="http://www.w3.org/2000/svg" viewBox="0 0 400 300"><defs>
<radialGradient id="shadow"><stop offset="0" stop-color="#0b1e5b" stop-opacity=".28"/><stop offset="1" stop-color="#0b1e5b" stop-opacity="0"/></radialGradient>
<linearGradient id="silver" x1="0" y1="0" x2="0" y2="1"><stop offset="0" stop-color="#f4f6fa"/><stop offset=".55" stop-color="#cfd5df"/><stop offset="1" stop-color="#9aa3b2"/></linearGradient>
<linearGradient id="silverH" x1="0" y1="0" x2="1" y2="0"><stop offset="0" stop-color="#b9c0cc"/><stop offset=".5" stop-color="#eef1f6"/><stop offset="1" stop-color="#aeb6c3"/></linearGradient>
<linearGradient id="dark" x1="0" y1="0" x2="0" y2="1"><stop offset="0" stop-color="#3a3f4b"/><stop offset="1" stop-color="#14171d"/></linearGradient>
<linearGradient id="black" x1="0" y1="0" x2="0" y2="1"><stop offset="0" stop-color="#2b2f38"/><stop offset="1" stop-color="#090a0d"/></linearGradient>
<linearGradient id="gloss" x1="0" y1="0" x2="1" y2="1"><stop offset="0" stop-color="#fff" stop-opacity=".35"/><stop offset=".45" stop-color="#fff" stop-opacity="0"/></linearGradient>
</defs>
<ellipse cx="200" cy="272" rx="165" ry="14" fill="url(#shadow)"/><g transform="translate(0 10)"><path d="M70 70 L330 70 Q340 70 342 80 L352 220 Q353 232 340 232 L60 232 Q47 232 48 220 L58 80 Q60 70 70 70Z" fill="url(#dark)"/>
    <path d="M70 70 L330 70 Q340 70 342 80 L346 140 L54 140 L58 80 Q60 70 70 70Z" fill="url(#gloss)"/>
    <circle cx="200" cy="148" r="16" fill="none" stroke="#5b6170" stroke-width="3"/></g></svg>