<svg xmlns="http://www.w3.org/2000/svg" viewBox="0 0 400 300"><defs>
<radialGradient id="shadow"><stop offset="0" stop-color="#0b1e5b" stop-opacity=".28"/><stop offset="1" stop-color="#0b1e5b" stop-opacity="0"/></radialGradient>
<linearGradient id="silver" x1="0" y1="0" x2="0" y2="1"><stop offset="0" stop-color="#f4f6fa"/><stop offset=".55" stop-color="#cfd5df"/><stop offset="1" stop-color="#9aa3b2"/></linearGradient>
<linearGradient id="silverH" x1="0" y1="0" x2="1" y2="0"><stop offset="0" stop-color="#b9c0cc"/><stop offset=".5" stop-color="#eef1f6"/><stop offset="1" stop-color="#aeb6c3"/></linearGradient>
<linearGradient id="dark" x1="0" y1="0" x2="0" y2="1"><stop offset="0" stop-color="#3a3f4b"/><stop offset="1" stop-color="#14171d"/></linearGradient>
<linearGradient id="black" x1="0" y1="0" x2="0" y2="1"><stop offset="0" stop-color="#2b2f38"/><stop offset="1" stop-color="#090a0d"/></linearGradient>
<linearGradient id="gloss" x1="0" y1="0" x2="1" y2="1"><stop offset="0" stop-color="#fff" stop-opacity=".35"/><stop offset=".45" stop-color="#fff" stop-opacity="0"/></linearGradient>
<linearGradient id="ph" x1="0" y1="0" x2="1" y2="1"><stop offset="0" stop-color="#1b3fd1"/><stop offset=".5" stop-color="#6a2bd9"/><stop offset="1" stop-color="#0b1a5c"/></linearGradient></defs>
<ellipse cx="200" cy="272" rx="165" ry="14" fill="url(#shadow)"/>
    <rect x="140" y="18" width="120" height="244" rx="22" fill="#2b5bd7"/><rect x="146" y="24" width="108" height="232" rx="18" fill="#0a0c12"/>
    <rect x="150" y="28" width="100" height="224" rx="15" fill="url(#ph)"/>
    <path d="M150 170 Q200 90 250 120 L250 252 L150 252Z" fill="#9ad0ff" opacity=".25"/>
    <circle cx="200" cy="38" r="4" fill="#0a0c12"/><rect x="150" y="28" width="100" height="224" rx="15" fill="url(#gloss)"/>
    <rect x="260" y="80" width="3" height="34" rx="1.5" fill="#1d47b8"/></svg>