<svg xmlns="http://www.w3.org/2000/svg" viewBox="0 0 400 300"><defs>
<radialGradient id="shadow"><stop offset="0" stop-color="#0b1e5b" stop-opacity=".28"/><stop offset="1" stop-color="#0b1e5b" stop-opacity="0"/></radialGradient>
<linearGradient id="silver" x1="0" y1="0" x2="0" y2="1"><stop offset="0" stop-color="#f4f6fa"/><stop offset=".55" stop-color="#cfd5df"/><stop offset="1" stop-color="#9aa3b2"/></linearGradient>
<linearGradient id="silverH" x1="0" y1="0" x2="1" y2="0"><stop offset="0" stop-color="#b9c0cc"/><stop offset=".5" stop-color="#eef1f6"/><stop offset="1" stop-color="#aeb6c3"/></linearGradient>
<linearGradient id="dark" x1="0" y1="0" x2="0" y2="1"><stop offset="0" stop-color="#3a3f4b"/><stop offset="1" stop-color="#14171d"/></linearGradient>
<linearGradient id="black" x1="0" y1="0" x2="0" y2="1"><stop offset="0" stop-color="#2b2f38"/><stop offset="1" stop-color="#090a0d"/></linearGradient>
<linearGradient id="gloss" x1="0" y1="0" x2="1" y2="1"><stop offset="0" stop-color="#fff" stop-opacity=".35"/><stop offset=".45" stop-color="#fff" stop-opacity="0"/></linearGradient>
</defs>
<ellipse cx="200" cy="272" rx="165" ry="14" fill="url(#shadow)"/><rect x="70" y="160" width="260" height="60" rx="14" fill="url(#black)"/>
    <rect x="89" y="40" width="12" height="130" rx="6" fill="url(#dark)" transform="rotate(-10 95 170)"/><rect x="149" y="54" width="12" height="116" rx="6" fill="url(#dark)" transform="rotate(-4 155 170)"/><rect x="239" y="40" width="12" height="130" rx="6" fill="url(#dark)" transform="rotate(4 245 170)"/><rect x="299" y="54" width="12" height="116" rx="6" fill="url(#dark)" transform="rotate(10 305 170)"/>
    <circle cx="140" cy="200" r="3.5" fill="#22c55e"/><circle cx="164" cy="200" r="3.5" fill="#22c55e"/><circle cx="188" cy="200" r="3.5" fill="#22c55e"/><circle cx="212" cy="200" r="3.5" fill="#22c55e"/><circle cx="236" cy="200" r="3.5" fill="#3b82f6"/><circle cx="260" cy="200" r="3.5" fill="#3b82f6"/>
    <rect x="70" y="160" width="260" height="20" rx="10" fill="url(#gloss)"/></svg>